<?xml version="1.0" standalone="no"?>
<!DOCTYPE svg PUBLIC "-//W3C//DTD SVG 20010904//EN"
 "http://www.w3.org/TR/2001/REC-SVG-20010904/DTD/svg10.dtd">
<svg version="1.0" xmlns="http://www.w3.org/2000/svg"
 width="1280.000000pt" height="1226.000000pt" viewBox="0 0 1280.000000 1226.000000"
 preserveAspectRatio="xMidYMid meet">
<g transform="translate(0.000000,1226.000000) scale(0.100000,-0.100000)"
fill="#000000" stroke="none">
<path d="M1371 11274 l-1354 -966 54 -53 c30 -29 1087 -987 2349 -2130 1262
-1142 2301 -2085 2308 -2095 12 -16 -218 -307 -2248 -2845 -1244 -1555 -2259
-2829 -2256 -2832 3 -3 65 16 138 41 131 46 269 78 2761 639 l499 112 1611
1473 c886 809 1618 1472 1626 1472 9 0 122 -96 251 -213 406 -368 3293 -2983
3778 -3422 255 -231 468 -422 473 -423 5 -2 9 12 9 31 0 45 8 67 25 67 8 0 18
15 24 33 30 91 511 1803 511 1817 0 9 -727 865 -1615 1904 -888 1038 -1615
1891 -1615 1895 0 5 917 847 2038 1871 1120 1025 2037 1867 2037 1871 0 5
-718 498 -1595 1096 -1130 770 -1602 1087 -1620 1086 -16 -1 -48 18 -93 54
-37 30 -74 53 -81 50 -7 -3 -642 -792 -1411 -1754 -769 -961 -1403 -1751
-1409 -1755 -6 -4 -14 -7 -18 -5 -4 1 -723 839 -1598 1862 -876 1023 -1596
1864 -1601 1869 -5 6 -56 -27 -129 -83 -66 -51 -127 -91 -134 -89 -7 2 -87 89
-176 193 -89 105 -168 191 -174 193 -6 1 -620 -433 -1365 -964z"/>
</g>
</svg>
